# xmcd
#
# Track frame offsets:
# 150
# 21850
# 43983
# 65255
# 87067
# 107757
# 125117
# 148387
# 169490
#
# Disc length: 2742 seconds
#
#
# Revision: 1
# Processed by: cddbd v1.5.2PL0 Copyright (c) Steve Scherf et al.
# Submitted via: FreeRIP 2.96 
#
DISCID=860ab409
DTITLE=Marc Anthony - Libre
DYEAR=2005
DGENRE=Salsa
TTITLE0=Celos
TTITLE1=Este Loco Que Te Ama
TTITLE2=Viviendo
TTITLE3=Hasta Que Vuelvas Conmigo
TTITLE4=Barco A La Deriva
TTITLE5=De Que Depende
TTITLE6=Yo Te Quiero
TTITLE7=Amor Aventurero
TTITLE8=Caminaré
EXTD=YEAR: 2005
EXTT0=
EXTT1=
EXTT2=
EXTT3=
EXTT4=
EXTT5=
EXTT6=
EXTT7=
EXTT8=
PLAYORDER=
